<svg width="93" height="66" viewBox="0 0 93 66" fill="none" xmlns="http://www.w3.org/2000/svg">
<path d="M73 25.1C72 11.1 60.4 0 46.1 0C31.8 0 20.1 11.1 19.2 25.1C8.5 25.7 0 34.5 0 45.2C0 56.3 9 65.3 20.1 65.3H72C83.1 65.3 92.1 56.3 92.1 45.2C92.1 34.5 83.6 25.7 73 25.1Z" fill="url(#paint0_radial_2135_1781)"/>
<path d="M46.1 27.5997C38.5 21.4997 35.6 12.0997 39.5 6.69971C43.4 1.29971 52.8 1.8997 60.3 7.9997C67.9 14.0997 70.8 23.4997 66.9 28.8997C63 34.3997 53.6 33.7997 46.1 27.5997Z" fill="url(#paint1_radial_2135_1781)"/>
<path opacity="0.4" d="M73.0999 45.8003C67.0999 41.0003 64.7999 33.6003 67.8999 29.4003C70.9999 25.2003 78.2999 25.6003 84.2999 30.5003C90.2999 35.3003 92.5999 42.7003 89.4999 46.9003C86.3999 51.1003 79.0999 50.6003 73.0999 45.8003Z" fill="url(#paint2_radial_2135_1781)"/>
<path opacity="0.2" d="M14.4001 46.5C10.0001 39.6 4.90007 36.3 3.00007 39.1C1.10007 41.9 3.10007 49.7 7.50007 56.5C11.9001 63.4 17.0001 66.7 18.9001 63.9C20.8001 61.1 18.8001 53.3 14.4001 46.5Z" fill="url(#paint3_radial_2135_1781)"/>
<defs>
<radialGradient id="paint0_radial_2135_1781" cx="0" cy="0" r="1" gradientUnits="userSpaceOnUse" gradientTransform="translate(57.6693 13.7667) rotate(180) scale(70.2558 51.3219)">
<stop stop-color="white"/>
<stop offset="0.198" stop-color="#D5F3FF"/>
<stop offset="1" stop-color="#85BCF1"/>
</radialGradient>
<radialGradient id="paint1_radial_2135_1781" cx="0" cy="0" r="1" gradientUnits="userSpaceOnUse" gradientTransform="translate(53.1693 17.8631) rotate(126.034) scale(12.0915 17.6391)">
<stop stop-color="white"/>
<stop offset="1" stop-color="white" stop-opacity="0"/>
</radialGradient>
<radialGradient id="paint2_radial_2135_1781" cx="0" cy="0" r="1" gradientUnits="userSpaceOnUse" gradientTransform="translate(78.7274 38.1226) rotate(126.034) scale(9.50298 13.863)">
<stop stop-color="white"/>
<stop offset="1" stop-color="white" stop-opacity="0"/>
</radialGradient>
<radialGradient id="paint3_radial_2135_1781" cx="0" cy="0" r="1" gradientUnits="userSpaceOnUse" gradientTransform="translate(10.9453 51.5132) rotate(-25.7092) scale(4.87086 14.1795)">
<stop stop-color="white"/>
<stop offset="1" stop-color="white" stop-opacity="0"/>
</radialGradient>
</defs>
</svg>
